<svg width="3039" height="1611" viewBox="-11847 -1656 15198 8059" xmlns="http://www.w3.org/2000/svg">
<g fill="transparent" stroke-width="5">
<path d="M 0 0 h 990 v -475 h -435 v 978 h -801 v 835 h -377 v 836 h -157 v 84 h 329 v 342 h 931 v 522 h -724 v -891 h -508 v -274 h -146 v -844 h 686 v 441 h 192 v -992 h -781 v 119 h 436 v 286 h 787 v 85 h -801 v -417 h 619 v 710 h 42 v -261 h 296 v -697 h -354 v 843 h 613 v -880 h 789 v 134 h 636 v 738 h -939 v 459 h -338 v 905 h 811 v 950 h -44 v -992 h 845 v -771 h -563 v 76 h -69 v -839 h -57 v 311 h -615 v 931 h -437 v 201 h -879 v 1 h 978 v -415 h 548 v 398 h -560 v 112 h -894 v 668 h -708 v 104 h 622 v 768 h 901 v 746 h -793 v 26 h 357 v -216 h -216 v 33 h -653 v -782 h 989 v -678 h -7 v 649 h 860 v 281 h -988 v -362 h -525 v -652 h 620 v 376 h -983 v -759 h 828 v 669 h -297 v -207 h 68 v -77 h 255 v -269 h -661 v -310 h -309 v 490 h -55 v -471 h 260 v 912 h 691 v 62 h -63 v 581 h -289 v 366 h -862 v 360 h -485 v -946 h 937 v 470 h -792 v 614 h 936 v 963 h 611 v 151 h 908 v 195 h 615 v -768 h -166 v 314 h 640 v -47 h -161 v -872 h 50 v -694 h -917 v 149 h -92 v -244 h -337 v -479 h 755 v -746 h -196 v 759 h -936 v -61 h -744 v 774 h 53 v -439 h -185 v 504 h 769 v 696 h -285 v 396 h 791 v -21 h -35 v 877 h -9 v -398 h 447 v -101 h 590 v -862 h -351 v 210 h -935 v -938 h 131 v -758 h 99 v -192 h -20 v -142 h -946 v 981 h 998 v -214 h 174 v -710 h -719 v 879 h -411 v -839 h -381 v -924 h -221 v 397 h 380 v -715 h 139 v 367 h 253 v 973 h -9 v -624 h -426 v 885 h 200 v -940 h 214 v 75 h 717 v 2 h 578 v -161 h 421 v -326 h -561 v -311 h -701 v -259 h 836 v 920 h 35 v 432 h 610 v 63 h 664 v 39 h -119 v 47 h -605 v 228 h -364 v 14 h -226 v 365 h 796 v 233 h 476 v -145 h -926 v 907 h 681 v -267 h 844 v -735 h -948 v -344 h -629 v -31 h -383 v -694 h -666 v -158 h 841 v 27 h -150 v 950 h -335 v -275 h -184 v 157 h 504 v 602 h 605 v 185 h -215 v 420 h 700 v -809 h -139 v 937 h -248 v -693 h -56 v -92 h -914 v -743 h 445 v -417 h -504 v -23 h 332 v -865 h 747 v 553 h 595 v -845 h 693 v -915 h 81 " stroke="red" />
<path d="M 0 0 h -1004 v -406 h -974 v 745 h 504 v 705 h 430 v 726 h 839 v 550 h -913 v 584 h 109 v -148 h -866 v -664 h 341 v -449 h -626 v 492 h 716 v -596 h -977 v 987 h -47 v -612 h -478 v -928 h -66 v 752 h 665 v -415 h 543 v -887 h 315 v 866 h 227 v 615 h 478 v -180 h 255 v 316 h -955 v -657 h 752 v -561 h 786 v -7 h 918 v 755 h 506 v -131 h -875 v 849 h 823 v 755 h -604 v -944 h 186 v 326 h -172 v -993 h -259 v 765 h 427 v 193 h 663 v -470 h -294 v 437 h 645 v -10 h -926 v 814 h -536 v 598 h 886 v 290 h -226 v -156 h 754 v 105 h -604 v 136 h -883 v -87 h 839 v 807 h 724 v -184 h -746 v 79 h 474 v -186 h 727 v -9 h -69 v -565 h 459 v 852 h 61 v -370 h -890 v 439 h -431 v -846 h 460 v -358 h 51 v 407 h 55 v -179 h -385 v 652 h 193 v 52 h -569 v -980 h -185 v -813 h 636 v 275 h -585 v -590 h 215 v -947 h 851 v 127 h -249 v -954 h -884 v 235 h 3 v -735 h 994 v 883 h -386 v 506 h -963 v 751 h -989 v -733 h -221 v -890 h -711 v 32 h -74 v -437 h -700 v 977 h -49 v -478 h 438 v 27 h 945 v 670 h -230 v -863 h -616 v -461 h 267 v 25 h -646 v 681 h 426 v 918 h -791 v -712 h -730 v -715 h -67 v -359 h 915 v 524 h -722 v -374 h -582 v -529 h -802 v 865 h -596 v 5 h 323 v -235 h 405 v 62 h 304 v -996 h -939 v -420 h -62 v 299 h 802 v 803 h -376 v -430 h -810 v 334 h -67 v -395 h -818 v -953 h -817 v 411 h -225 v -383 h 247 v 234 h -430 v -315 h -418 v -254 h -964 v 372 h 979 v 301 h 577 v -440 h 924 v 220 h -121 v 785 h -609 v -20 h 861 v -288 h 388 v 410 h -278 v 748 h -800 v -755 h -919 v 985 h -785 v -676 h 916 v 528 h -507 v 469 h -582 v 8 h -900 v -512 h -764 v 124 h -10 v -567 h -379 v 231 h 841 v 244 h 479 v -145 h -769 v 845 h 651 v -712 h -920 v -791 h 95 v 958 h -608 v 755 h 967 v -855 h 563 v 921 h -37 v -699 h -944 v -718 h 959 v 195 h -922 v -726 h 378 v -258 h 340 v 62 h -555 v 135 h -690 v -269 h -273 v 851 h -60 v 851 h 1 v 315 h 117 v 855 h -275 v 288 h 25 v -503 h 569 v 596 h -823 v -687 h -450 " stroke="green" />
</g>
</svg>
